<?xml version="1.0" encoding="UTF-8" standalone="no"?>
<!-- This Source Code Form is subject to the terms of the Mozilla Public
   - License, v. 2.0. If a copy of the MPL was not distributed with this
   - file, You can obtain one at http://mozilla.org/MPL/2.0/. -->

<svg
   width="22"
   height="22"
   version="1.1"
   id="svg1"
   sodipodi:docname="autoscroll.svg"
   inkscape:version="1.3.2 (091e20e, 2023-11-25, custom)"
   xmlns:inkscape="http://www.inkscape.org/namespaces/inkscape"
   xmlns:sodipodi="http://sodipodi.sourceforge.net/DTD/sodipodi-0.dtd"
   xmlns="http://www.w3.org/2000/svg"
   xmlns:svg="http://www.w3.org/2000/svg">
  <defs
     id="defs1" />
  <sodipodi:namedview
     id="namedview1"
     pagecolor="#ffffff"
     bordercolor="#000000"
     borderopacity="0.25"
     inkscape:showpageshadow="2"
     inkscape:pageopacity="0.0"
     inkscape:pagecheckerboard="0"
     inkscape:deskcolor="#d1d1d1"
     inkscape:zoom="37.318182"
     inkscape:cx="10.986602"
     inkscape:cy="11"
     inkscape:window-width="1920"
     inkscape:window-height="1017"
     inkscape:window-x="-8"
     inkscape:window-y="-8"
     inkscape:window-maximized="1"
     inkscape:current-layer="svg1" />
  <path
     d="m 21.707,10.293 -3,-3 A 1,1 0 0 0 17.293,8.707 L 19.586,11 17.293,13.293 a 1,1 0 1 0 1.414,1.414 l 3,-3 a 1,1 0 0 0 0,-1.414 z"
     id="path5" />
  <path
     d="m 4.707,7.293 a 1,1 0 0 0 -1.414,0 l -3,3 a 1,1 0 0 0 0,1.414 l 3,3 A 1,1 0 0 0 4.707,13.293 L 2.414,11 4.707,8.707 a 1,1 0 0 0 0,-1.414 z"
     id="path4" />
  <path
     d="m 11.707,0.293 a 1,1 0 0 0 -1.414,0 l -3,3 A 1,1 0 0 0 8.707,4.707 L 11,2.414 13.293,4.707 a 1,1 0 0 0 1.414,-1.414 z"
     id="path3" />
  <path
     d="M 13.293,17.293 11,19.586 8.707,17.293 a 1,1 0 0 0 -1.414,1.414 l 3,3 a 1,1 0 0 0 1.414,0 l 3,-3 a 1,1 0 0 0 -1.414,-1.414 z"
     id="path1" />
  <circle
     cx="11"
     cy="11"
     r="2"
     id="circle1" />
</svg>
